<mxfile host="Electron" agent="Mozilla/5.0 (Windows NT 10.0; Win64; x64) AppleWebKit/537.36 (KHTML, like Gecko) draw.io/28.1.2 Chrome/138.0.7204.243 Electron/37.4.0 Safari/537.36" version="28.1.2" pages="4">
  <diagram name="ERD" id="O4plSGy1OB0OwrzE3A2c">
    <mxGraphModel dx="1042" dy="660" grid="1" gridSize="10" guides="1" tooltips="1" connect="1" arrows="1" fold="1" page="1" pageScale="1" pageWidth="850" pageHeight="1100" math="0" shadow="0">
      <root>
        <mxCell id="0" />
        <mxCell id="1" parent="0" />
        <mxCell id="UlBsV6MkxHHGMCWRK0kT-1" value="" style="rounded=0;whiteSpace=wrap;html=1;" parent="1" vertex="1">
          <mxGeometry x="365" y="510" width="130" height="50" as="geometry" />
        </mxCell>
        <mxCell id="UlBsV6MkxHHGMCWRK0kT-2" value="Employees" style="text;html=1;align=center;verticalAlign=middle;whiteSpace=wrap;rounded=0;" parent="1" vertex="1">
          <mxGeometry x="385" y="520" width="90" height="30" as="geometry" />
        </mxCell>
        <mxCell id="UlBsV6MkxHHGMCWRK0kT-3" value="" style="rhombus;whiteSpace=wrap;html=1;" parent="1" vertex="1">
          <mxGeometry x="175" y="300" width="80" height="80" as="geometry" />
        </mxCell>
        <mxCell id="UlBsV6MkxHHGMCWRK0kT-4" value="" style="rhombus;whiteSpace=wrap;html=1;" parent="1" vertex="1">
          <mxGeometry x="655" y="280" width="80" height="80" as="geometry" />
        </mxCell>
        <mxCell id="UlBsV6MkxHHGMCWRK0kT-5" value="" style="rhombus;whiteSpace=wrap;html=1;" parent="1" vertex="1">
          <mxGeometry x="140" y="640" width="80" height="80" as="geometry" />
        </mxCell>
        <mxCell id="UlBsV6MkxHHGMCWRK0kT-6" value="" style="rhombus;whiteSpace=wrap;html=1;" parent="1" vertex="1">
          <mxGeometry x="635" y="640" width="80" height="80" as="geometry" />
        </mxCell>
        <mxCell id="UlBsV6MkxHHGMCWRK0kT-7" value="have" style="text;html=1;align=center;verticalAlign=middle;whiteSpace=wrap;rounded=0;" parent="1" vertex="1">
          <mxGeometry x="185" y="325" width="60" height="30" as="geometry" />
        </mxCell>
        <mxCell id="UlBsV6MkxHHGMCWRK0kT-8" value="satisfy" style="text;html=1;align=center;verticalAlign=middle;whiteSpace=wrap;rounded=0;" parent="1" vertex="1">
          <mxGeometry x="665" y="300" width="60" height="30" as="geometry" />
        </mxCell>
        <mxCell id="UlBsV6MkxHHGMCWRK0kT-9" value="have" style="text;html=1;align=center;verticalAlign=middle;whiteSpace=wrap;rounded=0;" parent="1" vertex="1">
          <mxGeometry x="645" y="665" width="60" height="30" as="geometry" />
        </mxCell>
        <mxCell id="UlBsV6MkxHHGMCWRK0kT-10" value="hired" style="text;html=1;align=center;verticalAlign=middle;whiteSpace=wrap;rounded=0;" parent="1" vertex="1">
          <mxGeometry x="150" y="665" width="60" height="30" as="geometry" />
        </mxCell>
        <mxCell id="UlBsV6MkxHHGMCWRK0kT-11" value="" style="ellipse;whiteSpace=wrap;html=1;" parent="1" vertex="1">
          <mxGeometry x="210" y="440" width="130" height="40" as="geometry" />
        </mxCell>
        <mxCell id="UlBsV6MkxHHGMCWRK0kT-12" value="&lt;u&gt;Emplyee ID&lt;/u&gt;" style="text;html=1;align=center;verticalAlign=middle;whiteSpace=wrap;rounded=0;" parent="1" vertex="1">
          <mxGeometry x="235" y="445" width="80" height="30" as="geometry" />
        </mxCell>
        <mxCell id="UlBsV6MkxHHGMCWRK0kT-13" value="" style="ellipse;whiteSpace=wrap;html=1;" parent="1" vertex="1">
          <mxGeometry x="405" y="430" width="125" height="35" as="geometry" />
        </mxCell>
        <mxCell id="UlBsV6MkxHHGMCWRK0kT-14" value="First Name" style="text;html=1;align=center;verticalAlign=middle;whiteSpace=wrap;rounded=0;" parent="1" vertex="1">
          <mxGeometry x="425" y="435" width="85" height="30" as="geometry" />
        </mxCell>
        <mxCell id="UlBsV6MkxHHGMCWRK0kT-15" value="" style="ellipse;whiteSpace=wrap;html=1;" parent="1" vertex="1">
          <mxGeometry x="560" y="500" width="130" height="40" as="geometry" />
        </mxCell>
        <mxCell id="UlBsV6MkxHHGMCWRK0kT-16" value="Last Name" style="text;html=1;align=center;verticalAlign=middle;whiteSpace=wrap;rounded=0;" parent="1" vertex="1">
          <mxGeometry x="580" y="505" width="90" height="30" as="geometry" />
        </mxCell>
        <mxCell id="UlBsV6MkxHHGMCWRK0kT-17" value="" style="ellipse;whiteSpace=wrap;html=1;" parent="1" vertex="1">
          <mxGeometry x="575" y="555" width="130" height="40" as="geometry" />
        </mxCell>
        <mxCell id="UlBsV6MkxHHGMCWRK0kT-18" value="Department" style="text;html=1;align=center;verticalAlign=middle;whiteSpace=wrap;rounded=0;" parent="1" vertex="1">
          <mxGeometry x="595" y="560" width="90" height="30" as="geometry" />
        </mxCell>
        <mxCell id="UlBsV6MkxHHGMCWRK0kT-19" value="" style="ellipse;whiteSpace=wrap;html=1;" parent="1" vertex="1">
          <mxGeometry x="195" y="565" width="130" height="40" as="geometry" />
        </mxCell>
        <mxCell id="UlBsV6MkxHHGMCWRK0kT-20" value="Phone" style="text;html=1;align=center;verticalAlign=middle;whiteSpace=wrap;rounded=0;" parent="1" vertex="1">
          <mxGeometry x="215" y="570" width="90" height="30" as="geometry" />
        </mxCell>
        <mxCell id="UlBsV6MkxHHGMCWRK0kT-21" value="" style="ellipse;whiteSpace=wrap;html=1;" parent="1" vertex="1">
          <mxGeometry x="375" y="590" width="130" height="40" as="geometry" />
        </mxCell>
        <mxCell id="UlBsV6MkxHHGMCWRK0kT-22" value="Job Title" style="text;html=1;align=center;verticalAlign=middle;whiteSpace=wrap;rounded=0;" parent="1" vertex="1">
          <mxGeometry x="395" y="595" width="90" height="30" as="geometry" />
        </mxCell>
        <mxCell id="UlBsV6MkxHHGMCWRK0kT-23" value="" style="ellipse;whiteSpace=wrap;html=1;" parent="1" vertex="1">
          <mxGeometry x="140" y="510" width="130" height="40" as="geometry" />
        </mxCell>
        <mxCell id="UlBsV6MkxHHGMCWRK0kT-24" value="Email" style="text;html=1;align=center;verticalAlign=middle;whiteSpace=wrap;rounded=0;" parent="1" vertex="1">
          <mxGeometry x="160" y="520" width="90" height="15" as="geometry" />
        </mxCell>
        <mxCell id="UlBsV6MkxHHGMCWRK0kT-28" value="" style="endArrow=none;html=1;rounded=0;exitX=0.376;exitY=1.067;exitDx=0;exitDy=0;exitPerimeter=0;" parent="1" source="UlBsV6MkxHHGMCWRK0kT-14" edge="1">
          <mxGeometry width="50" height="50" relative="1" as="geometry">
            <mxPoint x="475" y="490" as="sourcePoint" />
            <mxPoint x="455" y="510" as="targetPoint" />
          </mxGeometry>
        </mxCell>
        <mxCell id="UlBsV6MkxHHGMCWRK0kT-32" value="" style="endArrow=none;html=1;rounded=0;entryX=0;entryY=0.5;entryDx=0;entryDy=0;exitX=0.5;exitY=1;exitDx=0;exitDy=0;" parent="1" source="UlBsV6MkxHHGMCWRK0kT-11" target="UlBsV6MkxHHGMCWRK0kT-1" edge="1">
          <mxGeometry width="50" height="50" relative="1" as="geometry">
            <mxPoint x="315" y="540" as="sourcePoint" />
            <mxPoint x="365" y="490" as="targetPoint" />
          </mxGeometry>
        </mxCell>
        <mxCell id="UlBsV6MkxHHGMCWRK0kT-33" value="" style="endArrow=none;html=1;rounded=0;entryX=0.768;entryY=0.92;entryDx=0;entryDy=0;entryPerimeter=0;exitX=0.003;exitY=0.64;exitDx=0;exitDy=0;exitPerimeter=0;" parent="1" source="UlBsV6MkxHHGMCWRK0kT-1" target="UlBsV6MkxHHGMCWRK0kT-23" edge="1">
          <mxGeometry width="50" height="50" relative="1" as="geometry">
            <mxPoint x="225" y="600" as="sourcePoint" />
            <mxPoint x="275" y="550" as="targetPoint" />
          </mxGeometry>
        </mxCell>
        <mxCell id="UlBsV6MkxHHGMCWRK0kT-35" value="" style="endArrow=none;html=1;rounded=0;exitX=0.665;exitY=0.06;exitDx=0;exitDy=0;exitPerimeter=0;" parent="1" source="UlBsV6MkxHHGMCWRK0kT-19" edge="1">
          <mxGeometry width="50" height="50" relative="1" as="geometry">
            <mxPoint x="335" y="610" as="sourcePoint" />
            <mxPoint x="385" y="560" as="targetPoint" />
          </mxGeometry>
        </mxCell>
        <mxCell id="UlBsV6MkxHHGMCWRK0kT-36" value="" style="endArrow=none;html=1;rounded=0;exitX=1;exitY=0.5;exitDx=0;exitDy=0;" parent="1" source="UlBsV6MkxHHGMCWRK0kT-1" edge="1">
          <mxGeometry width="50" height="50" relative="1" as="geometry">
            <mxPoint x="525" y="580" as="sourcePoint" />
            <mxPoint x="575" y="530" as="targetPoint" />
          </mxGeometry>
        </mxCell>
        <mxCell id="UlBsV6MkxHHGMCWRK0kT-37" value="" style="endArrow=none;html=1;rounded=0;exitX=0.347;exitY=-0.113;exitDx=0;exitDy=0;exitPerimeter=0;" parent="1" source="UlBsV6MkxHHGMCWRK0kT-22" edge="1">
          <mxGeometry width="50" height="50" relative="1" as="geometry">
            <mxPoint x="425" y="610" as="sourcePoint" />
            <mxPoint x="475" y="560" as="targetPoint" />
          </mxGeometry>
        </mxCell>
        <mxCell id="UlBsV6MkxHHGMCWRK0kT-38" value="" style="endArrow=none;html=1;rounded=0;exitX=1;exitY=0.75;exitDx=0;exitDy=0;" parent="1" source="UlBsV6MkxHHGMCWRK0kT-1" edge="1">
          <mxGeometry width="50" height="50" relative="1" as="geometry">
            <mxPoint x="525" y="630" as="sourcePoint" />
            <mxPoint x="595" y="560" as="targetPoint" />
          </mxGeometry>
        </mxCell>
        <mxCell id="UlBsV6MkxHHGMCWRK0kT-39" value="" style="endArrow=none;html=1;rounded=0;exitX=1;exitY=0;exitDx=0;exitDy=0;" parent="1" source="UlBsV6MkxHHGMCWRK0kT-5" edge="1">
          <mxGeometry width="50" height="50" relative="1" as="geometry">
            <mxPoint x="245" y="750" as="sourcePoint" />
            <mxPoint x="423" y="563" as="targetPoint" />
          </mxGeometry>
        </mxCell>
        <mxCell id="UlBsV6MkxHHGMCWRK0kT-40" value="" style="endArrow=none;html=1;rounded=0;exitX=0.923;exitY=1;exitDx=0;exitDy=0;exitPerimeter=0;" parent="1" source="UlBsV6MkxHHGMCWRK0kT-1" edge="1">
          <mxGeometry width="50" height="50" relative="1" as="geometry">
            <mxPoint x="595" y="720" as="sourcePoint" />
            <mxPoint x="645" y="670" as="targetPoint" />
          </mxGeometry>
        </mxCell>
        <mxCell id="UlBsV6MkxHHGMCWRK0kT-41" value="" style="endArrow=none;html=1;rounded=0;exitX=1;exitY=0;exitDx=0;exitDy=0;entryX=0;entryY=1;entryDx=0;entryDy=0;" parent="1" source="UlBsV6MkxHHGMCWRK0kT-1" target="UlBsV6MkxHHGMCWRK0kT-4" edge="1">
          <mxGeometry width="50" height="50" relative="1" as="geometry">
            <mxPoint x="465" y="495" as="sourcePoint" />
            <mxPoint x="645" y="325" as="targetPoint" />
          </mxGeometry>
        </mxCell>
        <mxCell id="UlBsV6MkxHHGMCWRK0kT-42" value="" style="endArrow=none;html=1;rounded=0;exitX=1;exitY=1;exitDx=0;exitDy=0;entryX=0.372;entryY=-0.064;entryDx=0;entryDy=0;entryPerimeter=0;" parent="1" source="UlBsV6MkxHHGMCWRK0kT-3" target="UlBsV6MkxHHGMCWRK0kT-1" edge="1">
          <mxGeometry width="50" height="50" relative="1" as="geometry">
            <mxPoint x="235" y="400" as="sourcePoint" />
            <mxPoint x="285" y="350" as="targetPoint" />
          </mxGeometry>
        </mxCell>
        <mxCell id="UlBsV6MkxHHGMCWRK0kT-43" value="" style="rounded=0;whiteSpace=wrap;html=1;" parent="1" vertex="1">
          <mxGeometry x="160" y="190" width="120" height="60" as="geometry" />
        </mxCell>
        <mxCell id="UlBsV6MkxHHGMCWRK0kT-45" value="" style="rounded=0;whiteSpace=wrap;html=1;" parent="1" vertex="1">
          <mxGeometry x="130" y="750" width="120" height="60" as="geometry" />
        </mxCell>
        <mxCell id="UlBsV6MkxHHGMCWRK0kT-46" value="" style="rounded=0;whiteSpace=wrap;html=1;" parent="1" vertex="1">
          <mxGeometry x="635" y="190" width="120" height="60" as="geometry" />
        </mxCell>
        <mxCell id="UlBsV6MkxHHGMCWRK0kT-47" value="" style="rounded=0;whiteSpace=wrap;html=1;" parent="1" vertex="1">
          <mxGeometry x="630" y="760" width="120" height="60" as="geometry" />
        </mxCell>
        <mxCell id="UlBsV6MkxHHGMCWRK0kT-48" value="" style="endArrow=none;html=1;rounded=0;entryX=0.88;entryY=0.025;entryDx=0;entryDy=0;entryPerimeter=0;exitX=1;exitY=1;exitDx=0;exitDy=0;" parent="1" source="UlBsV6MkxHHGMCWRK0kT-5" target="UlBsV6MkxHHGMCWRK0kT-45" edge="1">
          <mxGeometry width="50" height="50" relative="1" as="geometry">
            <mxPoint x="200" y="740" as="sourcePoint" />
            <mxPoint x="250" y="690" as="targetPoint" />
          </mxGeometry>
        </mxCell>
        <mxCell id="UlBsV6MkxHHGMCWRK0kT-52" value="" style="endArrow=none;html=1;rounded=0;exitX=0.322;exitY=-0.047;exitDx=0;exitDy=0;exitPerimeter=0;" parent="1" source="UlBsV6MkxHHGMCWRK0kT-47" edge="1">
          <mxGeometry width="50" height="50" relative="1" as="geometry">
            <mxPoint x="620" y="760" as="sourcePoint" />
            <mxPoint x="670" y="710" as="targetPoint" />
          </mxGeometry>
        </mxCell>
        <mxCell id="UlBsV6MkxHHGMCWRK0kT-53" value="" style="endArrow=none;html=1;rounded=0;exitX=0.699;exitY=0.126;exitDx=0;exitDy=0;exitPerimeter=0;" parent="1" source="UlBsV6MkxHHGMCWRK0kT-3" edge="1">
          <mxGeometry width="50" height="50" relative="1" as="geometry">
            <mxPoint x="190" y="300" as="sourcePoint" />
            <mxPoint x="240" y="250" as="targetPoint" />
          </mxGeometry>
        </mxCell>
        <mxCell id="UlBsV6MkxHHGMCWRK0kT-54" value="" style="endArrow=none;html=1;rounded=0;entryX=0.437;entryY=1.061;entryDx=0;entryDy=0;entryPerimeter=0;exitX=0.25;exitY=0;exitDx=0;exitDy=0;exitPerimeter=0;" parent="1" source="UlBsV6MkxHHGMCWRK0kT-8" target="UlBsV6MkxHHGMCWRK0kT-46" edge="1">
          <mxGeometry width="50" height="50" relative="1" as="geometry">
            <mxPoint x="650" y="310" as="sourcePoint" />
            <mxPoint x="700" y="260" as="targetPoint" />
          </mxGeometry>
        </mxCell>
        <mxCell id="UlBsV6MkxHHGMCWRK0kT-55" value="Hiring" style="text;html=1;align=center;verticalAlign=middle;whiteSpace=wrap;rounded=0;" parent="1" vertex="1">
          <mxGeometry x="135" y="760" width="100" height="40" as="geometry" />
        </mxCell>
        <mxCell id="UlBsV6MkxHHGMCWRK0kT-56" value="Satisfaction" style="text;html=1;align=center;verticalAlign=middle;whiteSpace=wrap;rounded=0;" parent="1" vertex="1">
          <mxGeometry x="665" y="200" width="60" height="30" as="geometry" />
        </mxCell>
        <mxCell id="UlBsV6MkxHHGMCWRK0kT-57" value="Balances" style="text;html=1;align=center;verticalAlign=middle;whiteSpace=wrap;rounded=0;" parent="1" vertex="1">
          <mxGeometry x="640" y="770" width="100" height="30" as="geometry" />
        </mxCell>
        <mxCell id="UlBsV6MkxHHGMCWRK0kT-58" value="SickLeaves" style="text;html=1;align=center;verticalAlign=middle;whiteSpace=wrap;rounded=0;" parent="1" vertex="1">
          <mxGeometry x="175" y="200" width="75" height="40" as="geometry" />
        </mxCell>
        <mxCell id="UlBsV6MkxHHGMCWRK0kT-59" value="" style="ellipse;whiteSpace=wrap;html=1;" parent="1" vertex="1">
          <mxGeometry x="10" y="160" width="120" height="40" as="geometry" />
        </mxCell>
        <mxCell id="UlBsV6MkxHHGMCWRK0kT-64" value="&lt;u&gt;SickLeaves ID&lt;/u&gt;" style="text;html=1;align=center;verticalAlign=middle;whiteSpace=wrap;rounded=0;" parent="1" vertex="1">
          <mxGeometry x="30" y="165" width="90" height="30" as="geometry" />
        </mxCell>
        <mxCell id="UlBsV6MkxHHGMCWRK0kT-65" value="" style="ellipse;whiteSpace=wrap;html=1;" parent="1" vertex="1">
          <mxGeometry x="75" y="100" width="120" height="40" as="geometry" />
        </mxCell>
        <mxCell id="UlBsV6MkxHHGMCWRK0kT-66" value="Leave Date" style="text;html=1;align=center;verticalAlign=middle;whiteSpace=wrap;rounded=0;" parent="1" vertex="1">
          <mxGeometry x="95" y="105" width="90" height="30" as="geometry" />
        </mxCell>
        <mxCell id="UlBsV6MkxHHGMCWRK0kT-67" value="" style="ellipse;whiteSpace=wrap;html=1;" parent="1" vertex="1">
          <mxGeometry x="210" y="95" width="120" height="40" as="geometry" />
        </mxCell>
        <mxCell id="UlBsV6MkxHHGMCWRK0kT-68" value="Days off" style="text;html=1;align=center;verticalAlign=middle;whiteSpace=wrap;rounded=0;" parent="1" vertex="1">
          <mxGeometry x="230" y="100" width="90" height="30" as="geometry" />
        </mxCell>
        <mxCell id="UlBsV6MkxHHGMCWRK0kT-71" value="" style="ellipse;whiteSpace=wrap;html=1;" parent="1" vertex="1">
          <mxGeometry x="270" y="150" width="120" height="40" as="geometry" />
        </mxCell>
        <mxCell id="UlBsV6MkxHHGMCWRK0kT-72" value="Reason" style="text;html=1;align=center;verticalAlign=middle;whiteSpace=wrap;rounded=0;" parent="1" vertex="1">
          <mxGeometry x="290" y="155" width="90" height="30" as="geometry" />
        </mxCell>
        <mxCell id="UlBsV6MkxHHGMCWRK0kT-73" value="" style="endArrow=none;html=1;rounded=0;exitX=0.633;exitY=1;exitDx=0;exitDy=0;exitPerimeter=0;entryX=0;entryY=0.25;entryDx=0;entryDy=0;" parent="1" source="UlBsV6MkxHHGMCWRK0kT-59" target="UlBsV6MkxHHGMCWRK0kT-43" edge="1">
          <mxGeometry width="50" height="50" relative="1" as="geometry">
            <mxPoint x="100" y="250" as="sourcePoint" />
            <mxPoint x="150" y="200" as="targetPoint" />
          </mxGeometry>
        </mxCell>
        <mxCell id="UlBsV6MkxHHGMCWRK0kT-74" value="" style="endArrow=none;html=1;rounded=0;entryX=0.841;entryY=1.096;entryDx=0;entryDy=0;entryPerimeter=0;exitX=0.25;exitY=0;exitDx=0;exitDy=0;" parent="1" source="UlBsV6MkxHHGMCWRK0kT-43" target="UlBsV6MkxHHGMCWRK0kT-66" edge="1">
          <mxGeometry width="50" height="50" relative="1" as="geometry">
            <mxPoint x="150" y="190" as="sourcePoint" />
            <mxPoint x="200" y="140" as="targetPoint" />
          </mxGeometry>
        </mxCell>
        <mxCell id="UlBsV6MkxHHGMCWRK0kT-75" value="" style="endArrow=none;html=1;rounded=0;exitX=0.5;exitY=0;exitDx=0;exitDy=0;" parent="1" source="UlBsV6MkxHHGMCWRK0kT-43" edge="1">
          <mxGeometry width="50" height="50" relative="1" as="geometry">
            <mxPoint x="220" y="180" as="sourcePoint" />
            <mxPoint x="260" y="140" as="targetPoint" />
          </mxGeometry>
        </mxCell>
        <mxCell id="UlBsV6MkxHHGMCWRK0kT-76" value="" style="endArrow=none;html=1;rounded=0;exitX=1;exitY=0.75;exitDx=0;exitDy=0;" parent="1" source="UlBsV6MkxHHGMCWRK0kT-43" edge="1">
          <mxGeometry width="50" height="50" relative="1" as="geometry">
            <mxPoint x="290" y="240" as="sourcePoint" />
            <mxPoint x="340" y="190" as="targetPoint" />
          </mxGeometry>
        </mxCell>
        <mxCell id="UlBsV6MkxHHGMCWRK0kT-79" value="" style="ellipse;whiteSpace=wrap;html=1;" parent="1" vertex="1">
          <mxGeometry x="450" y="115" width="120" height="40" as="geometry" />
        </mxCell>
        <mxCell id="UlBsV6MkxHHGMCWRK0kT-80" value="&lt;u&gt;Survey ID&lt;/u&gt;" style="text;html=1;align=center;verticalAlign=middle;whiteSpace=wrap;rounded=0;" parent="1" vertex="1">
          <mxGeometry x="470" y="120" width="90" height="30" as="geometry" />
        </mxCell>
        <mxCell id="UlBsV6MkxHHGMCWRK0kT-81" value="" style="ellipse;whiteSpace=wrap;html=1;" parent="1" vertex="1">
          <mxGeometry x="515" y="55" width="120" height="40" as="geometry" />
        </mxCell>
        <mxCell id="UlBsV6MkxHHGMCWRK0kT-82" value="Satisfication Score" style="text;html=1;align=center;verticalAlign=middle;whiteSpace=wrap;rounded=0;" parent="1" vertex="1">
          <mxGeometry x="535" y="60" width="90" height="30" as="geometry" />
        </mxCell>
        <mxCell id="UlBsV6MkxHHGMCWRK0kT-83" value="" style="ellipse;whiteSpace=wrap;html=1;" parent="1" vertex="1">
          <mxGeometry x="650" y="50" width="120" height="40" as="geometry" />
        </mxCell>
        <mxCell id="UlBsV6MkxHHGMCWRK0kT-84" value="Comments" style="text;html=1;align=center;verticalAlign=middle;whiteSpace=wrap;rounded=0;" parent="1" vertex="1">
          <mxGeometry x="670" y="55" width="90" height="30" as="geometry" />
        </mxCell>
        <mxCell id="UlBsV6MkxHHGMCWRK0kT-85" value="" style="ellipse;whiteSpace=wrap;html=1;" parent="1" vertex="1">
          <mxGeometry x="710" y="105" width="120" height="40" as="geometry" />
        </mxCell>
        <mxCell id="UlBsV6MkxHHGMCWRK0kT-86" value="Survey Date" style="text;html=1;align=center;verticalAlign=middle;whiteSpace=wrap;rounded=0;" parent="1" vertex="1">
          <mxGeometry x="730" y="110" width="90" height="30" as="geometry" />
        </mxCell>
        <mxCell id="UlBsV6MkxHHGMCWRK0kT-87" value="" style="endArrow=none;html=1;rounded=0;exitX=0.627;exitY=1.004;exitDx=0;exitDy=0;exitPerimeter=0;" parent="1" source="UlBsV6MkxHHGMCWRK0kT-80" edge="1">
          <mxGeometry width="50" height="50" relative="1" as="geometry">
            <mxPoint x="580" y="260" as="sourcePoint" />
            <mxPoint x="630" y="210" as="targetPoint" />
          </mxGeometry>
        </mxCell>
        <mxCell id="UlBsV6MkxHHGMCWRK0kT-88" value="" style="endArrow=none;html=1;rounded=0;entryX=1;entryY=1;entryDx=0;entryDy=0;exitX=0.154;exitY=-0.006;exitDx=0;exitDy=0;exitPerimeter=0;" parent="1" source="UlBsV6MkxHHGMCWRK0kT-46" target="UlBsV6MkxHHGMCWRK0kT-82" edge="1">
          <mxGeometry width="50" height="50" relative="1" as="geometry">
            <mxPoint x="600" y="140" as="sourcePoint" />
            <mxPoint x="650" y="90" as="targetPoint" />
          </mxGeometry>
        </mxCell>
        <mxCell id="UlBsV6MkxHHGMCWRK0kT-89" value="" style="endArrow=none;html=1;rounded=0;exitX=0.5;exitY=0;exitDx=0;exitDy=0;" parent="1" source="UlBsV6MkxHHGMCWRK0kT-46" edge="1">
          <mxGeometry width="50" height="50" relative="1" as="geometry">
            <mxPoint x="660" y="140" as="sourcePoint" />
            <mxPoint x="710" y="90" as="targetPoint" />
          </mxGeometry>
        </mxCell>
        <mxCell id="UlBsV6MkxHHGMCWRK0kT-90" value="" style="endArrow=none;html=1;rounded=0;entryX=0.75;entryY=1;entryDx=0;entryDy=0;" parent="1" target="UlBsV6MkxHHGMCWRK0kT-86" edge="1">
          <mxGeometry width="50" height="50" relative="1" as="geometry">
            <mxPoint x="760" y="200" as="sourcePoint" />
            <mxPoint x="810" y="150" as="targetPoint" />
          </mxGeometry>
        </mxCell>
        <mxCell id="UlBsV6MkxHHGMCWRK0kT-92" value="" style="ellipse;whiteSpace=wrap;html=1;" parent="1" vertex="1">
          <mxGeometry x="510" y="830" width="120" height="40" as="geometry" />
        </mxCell>
        <mxCell id="UlBsV6MkxHHGMCWRK0kT-93" value="&lt;u&gt;Balance ID&lt;/u&gt;" style="text;html=1;align=center;verticalAlign=middle;whiteSpace=wrap;rounded=0;" parent="1" vertex="1">
          <mxGeometry x="530" y="835" width="90" height="30" as="geometry" />
        </mxCell>
        <mxCell id="UlBsV6MkxHHGMCWRK0kT-94" value="" style="ellipse;whiteSpace=wrap;html=1;" parent="1" vertex="1">
          <mxGeometry x="600" y="875" width="120" height="40" as="geometry" />
        </mxCell>
        <mxCell id="UlBsV6MkxHHGMCWRK0kT-95" value="Annual Leave Balance" style="text;html=1;align=center;verticalAlign=middle;whiteSpace=wrap;rounded=0;" parent="1" vertex="1">
          <mxGeometry x="620" y="880" width="90" height="30" as="geometry" />
        </mxCell>
        <mxCell id="UlBsV6MkxHHGMCWRK0kT-96" value="" style="ellipse;whiteSpace=wrap;html=1;" parent="1" vertex="1">
          <mxGeometry x="735" y="870" width="120" height="40" as="geometry" />
        </mxCell>
        <mxCell id="UlBsV6MkxHHGMCWRK0kT-97" value="Sick Leave Balance" style="text;html=1;align=center;verticalAlign=middle;whiteSpace=wrap;rounded=0;" parent="1" vertex="1">
          <mxGeometry x="755" y="875" width="90" height="30" as="geometry" />
        </mxCell>
        <mxCell id="UlBsV6MkxHHGMCWRK0kT-98" value="" style="ellipse;whiteSpace=wrap;html=1;" parent="1" vertex="1">
          <mxGeometry x="790" y="780" width="120" height="40" as="geometry" />
        </mxCell>
        <mxCell id="UlBsV6MkxHHGMCWRK0kT-99" value="Last Update" style="text;html=1;align=center;verticalAlign=middle;whiteSpace=wrap;rounded=0;" parent="1" vertex="1">
          <mxGeometry x="810" y="785" width="90" height="30" as="geometry" />
        </mxCell>
        <mxCell id="UlBsV6MkxHHGMCWRK0kT-100" value="" style="ellipse;whiteSpace=wrap;html=1;" parent="1" vertex="1">
          <mxGeometry x="30" y="825" width="120" height="40" as="geometry" />
        </mxCell>
        <mxCell id="UlBsV6MkxHHGMCWRK0kT-101" value="&lt;u&gt;Hiring ID&lt;/u&gt;" style="text;html=1;align=center;verticalAlign=middle;whiteSpace=wrap;rounded=0;" parent="1" vertex="1">
          <mxGeometry x="50" y="830" width="90" height="30" as="geometry" />
        </mxCell>
        <mxCell id="UlBsV6MkxHHGMCWRK0kT-102" value="" style="ellipse;whiteSpace=wrap;html=1;" parent="1" vertex="1">
          <mxGeometry x="170" y="865" width="120" height="40" as="geometry" />
        </mxCell>
        <mxCell id="UlBsV6MkxHHGMCWRK0kT-103" value="Hiring Source" style="text;html=1;align=center;verticalAlign=middle;whiteSpace=wrap;rounded=0;" parent="1" vertex="1">
          <mxGeometry x="190" y="870" width="90" height="30" as="geometry" />
        </mxCell>
        <mxCell id="UlBsV6MkxHHGMCWRK0kT-106" value="" style="ellipse;whiteSpace=wrap;html=1;" parent="1" vertex="1">
          <mxGeometry x="280" y="810" width="120" height="40" as="geometry" />
        </mxCell>
        <mxCell id="UlBsV6MkxHHGMCWRK0kT-107" value="Hiring Date" style="text;html=1;align=center;verticalAlign=middle;whiteSpace=wrap;rounded=0;" parent="1" vertex="1">
          <mxGeometry x="300" y="815" width="90" height="30" as="geometry" />
        </mxCell>
        <mxCell id="UlBsV6MkxHHGMCWRK0kT-108" value="" style="endArrow=none;html=1;rounded=0;exitX=0.5;exitY=0;exitDx=0;exitDy=0;" parent="1" source="UlBsV6MkxHHGMCWRK0kT-92" edge="1">
          <mxGeometry width="50" height="50" relative="1" as="geometry">
            <mxPoint x="580" y="840" as="sourcePoint" />
            <mxPoint x="630" y="790" as="targetPoint" />
          </mxGeometry>
        </mxCell>
        <mxCell id="UlBsV6MkxHHGMCWRK0kT-109" value="" style="endArrow=none;html=1;rounded=0;" parent="1" edge="1">
          <mxGeometry width="50" height="50" relative="1" as="geometry">
            <mxPoint x="655" y="875" as="sourcePoint" />
            <mxPoint x="705" y="825" as="targetPoint" />
          </mxGeometry>
        </mxCell>
        <mxCell id="UlBsV6MkxHHGMCWRK0kT-110" value="" style="endArrow=none;html=1;rounded=0;entryX=0;entryY=0;entryDx=0;entryDy=0;" parent="1" target="UlBsV6MkxHHGMCWRK0kT-98" edge="1">
          <mxGeometry width="50" height="50" relative="1" as="geometry">
            <mxPoint x="750" y="790" as="sourcePoint" />
            <mxPoint x="800" y="740" as="targetPoint" />
          </mxGeometry>
        </mxCell>
        <mxCell id="UlBsV6MkxHHGMCWRK0kT-111" value="" style="endArrow=none;html=1;rounded=0;exitX=0;exitY=0;exitDx=0;exitDy=0;entryX=0.933;entryY=1.02;entryDx=0;entryDy=0;entryPerimeter=0;" parent="1" source="UlBsV6MkxHHGMCWRK0kT-97" target="UlBsV6MkxHHGMCWRK0kT-47" edge="1">
          <mxGeometry width="50" height="50" relative="1" as="geometry">
            <mxPoint x="730" y="870" as="sourcePoint" />
            <mxPoint x="780" y="820" as="targetPoint" />
          </mxGeometry>
        </mxCell>
        <mxCell id="UlBsV6MkxHHGMCWRK0kT-114" value="" style="endArrow=none;html=1;rounded=0;entryX=0.425;entryY=0.982;entryDx=0;entryDy=0;entryPerimeter=0;exitX=0.5;exitY=0;exitDx=0;exitDy=0;" parent="1" source="UlBsV6MkxHHGMCWRK0kT-101" target="UlBsV6MkxHHGMCWRK0kT-45" edge="1">
          <mxGeometry width="50" height="50" relative="1" as="geometry">
            <mxPoint x="140" y="870" as="sourcePoint" />
            <mxPoint x="190" y="820" as="targetPoint" />
          </mxGeometry>
        </mxCell>
        <mxCell id="UlBsV6MkxHHGMCWRK0kT-115" value="" style="endArrow=none;html=1;rounded=0;exitX=1;exitY=0.75;exitDx=0;exitDy=0;entryX=0.352;entryY=-0.003;entryDx=0;entryDy=0;entryPerimeter=0;" parent="1" source="UlBsV6MkxHHGMCWRK0kT-45" target="UlBsV6MkxHHGMCWRK0kT-106" edge="1">
          <mxGeometry width="50" height="50" relative="1" as="geometry">
            <mxPoint x="270" y="800" as="sourcePoint" />
            <mxPoint x="330" y="795" as="targetPoint" />
          </mxGeometry>
        </mxCell>
        <mxCell id="UlBsV6MkxHHGMCWRK0kT-116" value="" style="endArrow=none;html=1;rounded=0;" parent="1" edge="1">
          <mxGeometry width="50" height="50" relative="1" as="geometry">
            <mxPoint x="220" y="860" as="sourcePoint" />
            <mxPoint x="230" y="810" as="targetPoint" />
          </mxGeometry>
        </mxCell>
      </root>
    </mxGraphModel>
  </diagram>
  <diagram id="TFvKrl8A2NSxr6PYqHbP" name="Mapping">
    <mxGraphModel dx="1226" dy="776" grid="1" gridSize="10" guides="1" tooltips="1" connect="1" arrows="1" fold="1" page="1" pageScale="1" pageWidth="850" pageHeight="1100" math="0" shadow="0">
      <root>
        <mxCell id="0" />
        <mxCell id="1" parent="0" />
        <mxCell id="FvSrbzkRF-gKecdVOFJZ-2" value="" style="rounded=0;whiteSpace=wrap;html=1;" vertex="1" parent="1">
          <mxGeometry x="70" y="70" width="120" height="60" as="geometry" />
        </mxCell>
        <mxCell id="FvSrbzkRF-gKecdVOFJZ-3" value="" style="rounded=0;whiteSpace=wrap;html=1;" vertex="1" parent="1">
          <mxGeometry x="190" y="70" width="120" height="60" as="geometry" />
        </mxCell>
        <mxCell id="FvSrbzkRF-gKecdVOFJZ-4" value="&lt;font style=&quot;font-size: 26px;&quot;&gt;Employees&lt;/font&gt;" style="text;html=1;align=center;verticalAlign=middle;whiteSpace=wrap;rounded=0;" vertex="1" parent="1">
          <mxGeometry x="80" y="20" width="160" height="50" as="geometry" />
        </mxCell>
        <mxCell id="FvSrbzkRF-gKecdVOFJZ-5" value="&lt;b&gt;&lt;u&gt;Employees ID&lt;/u&gt;&lt;/b&gt;" style="text;html=1;align=center;verticalAlign=middle;whiteSpace=wrap;rounded=0;" vertex="1" parent="1">
          <mxGeometry x="70" y="75" width="120" height="50" as="geometry" />
        </mxCell>
        <mxCell id="FvSrbzkRF-gKecdVOFJZ-6" value="First Name" style="text;html=1;align=center;verticalAlign=middle;whiteSpace=wrap;rounded=0;" vertex="1" parent="1">
          <mxGeometry x="190" y="75" width="120" height="50" as="geometry" />
        </mxCell>
        <mxCell id="FvSrbzkRF-gKecdVOFJZ-7" value="" style="rounded=0;whiteSpace=wrap;html=1;" vertex="1" parent="1">
          <mxGeometry x="310" y="70" width="120" height="60" as="geometry" />
        </mxCell>
        <mxCell id="FvSrbzkRF-gKecdVOFJZ-16" value="Last Name" style="text;html=1;align=center;verticalAlign=middle;whiteSpace=wrap;rounded=0;" vertex="1" parent="1">
          <mxGeometry x="310" y="75" width="120" height="50" as="geometry" />
        </mxCell>
        <mxCell id="FvSrbzkRF-gKecdVOFJZ-17" value="" style="rounded=0;whiteSpace=wrap;html=1;" vertex="1" parent="1">
          <mxGeometry x="430" y="70" width="120" height="60" as="geometry" />
        </mxCell>
        <mxCell id="FvSrbzkRF-gKecdVOFJZ-18" value="Department" style="text;html=1;align=center;verticalAlign=middle;whiteSpace=wrap;rounded=0;" vertex="1" parent="1">
          <mxGeometry x="430" y="75" width="120" height="50" as="geometry" />
        </mxCell>
        <mxCell id="FvSrbzkRF-gKecdVOFJZ-19" value="" style="rounded=0;whiteSpace=wrap;html=1;" vertex="1" parent="1">
          <mxGeometry x="550" y="70" width="120" height="60" as="geometry" />
        </mxCell>
        <mxCell id="FvSrbzkRF-gKecdVOFJZ-20" value="" style="rounded=0;whiteSpace=wrap;html=1;" vertex="1" parent="1">
          <mxGeometry x="670" y="70" width="120" height="60" as="geometry" />
        </mxCell>
        <mxCell id="FvSrbzkRF-gKecdVOFJZ-21" value="" style="rounded=0;whiteSpace=wrap;html=1;" vertex="1" parent="1">
          <mxGeometry x="790" y="70" width="120" height="60" as="geometry" />
        </mxCell>
        <mxCell id="FvSrbzkRF-gKecdVOFJZ-22" value="Job Title" style="text;html=1;align=center;verticalAlign=middle;whiteSpace=wrap;rounded=0;" vertex="1" parent="1">
          <mxGeometry x="550" y="75" width="120" height="50" as="geometry" />
        </mxCell>
        <mxCell id="FvSrbzkRF-gKecdVOFJZ-23" value="Phone" style="text;html=1;align=center;verticalAlign=middle;whiteSpace=wrap;rounded=0;" vertex="1" parent="1">
          <mxGeometry x="670" y="75" width="120" height="50" as="geometry" />
        </mxCell>
        <mxCell id="FvSrbzkRF-gKecdVOFJZ-24" value="Email" style="text;html=1;align=center;verticalAlign=middle;whiteSpace=wrap;rounded=0;" vertex="1" parent="1">
          <mxGeometry x="790" y="75" width="120" height="50" as="geometry" />
        </mxCell>
        <mxCell id="FvSrbzkRF-gKecdVOFJZ-25" value="" style="rounded=0;whiteSpace=wrap;html=1;" vertex="1" parent="1">
          <mxGeometry x="80" y="250" width="120" height="60" as="geometry" />
        </mxCell>
        <mxCell id="FvSrbzkRF-gKecdVOFJZ-26" value="" style="rounded=0;whiteSpace=wrap;html=1;" vertex="1" parent="1">
          <mxGeometry x="200" y="250" width="120" height="60" as="geometry" />
        </mxCell>
        <mxCell id="FvSrbzkRF-gKecdVOFJZ-27" value="&lt;font style=&quot;font-size: 26px;&quot;&gt;Hiring&lt;/font&gt;" style="text;html=1;align=center;verticalAlign=middle;whiteSpace=wrap;rounded=0;" vertex="1" parent="1">
          <mxGeometry x="90" y="190" width="120" height="50" as="geometry" />
        </mxCell>
        <mxCell id="FvSrbzkRF-gKecdVOFJZ-28" value="&lt;b&gt;&lt;u&gt;Hiring ID&lt;/u&gt;&lt;/b&gt;" style="text;html=1;align=center;verticalAlign=middle;whiteSpace=wrap;rounded=0;" vertex="1" parent="1">
          <mxGeometry x="80" y="255" width="120" height="50" as="geometry" />
        </mxCell>
        <mxCell id="FvSrbzkRF-gKecdVOFJZ-29" value="Hiring Date" style="text;html=1;align=center;verticalAlign=middle;whiteSpace=wrap;rounded=0;" vertex="1" parent="1">
          <mxGeometry x="200" y="255" width="120" height="50" as="geometry" />
        </mxCell>
        <mxCell id="FvSrbzkRF-gKecdVOFJZ-30" value="" style="rounded=0;whiteSpace=wrap;html=1;" vertex="1" parent="1">
          <mxGeometry x="320" y="250" width="120" height="60" as="geometry" />
        </mxCell>
        <mxCell id="FvSrbzkRF-gKecdVOFJZ-31" value="Hiring Source" style="text;html=1;align=center;verticalAlign=middle;whiteSpace=wrap;rounded=0;" vertex="1" parent="1">
          <mxGeometry x="320" y="255" width="120" height="50" as="geometry" />
        </mxCell>
        <mxCell id="FvSrbzkRF-gKecdVOFJZ-32" value="" style="rounded=0;whiteSpace=wrap;html=1;" vertex="1" parent="1">
          <mxGeometry x="440" y="250" width="120" height="60" as="geometry" />
        </mxCell>
        <mxCell id="FvSrbzkRF-gKecdVOFJZ-40" value="" style="rounded=0;whiteSpace=wrap;html=1;" vertex="1" parent="1">
          <mxGeometry x="80" y="400" width="120" height="60" as="geometry" />
        </mxCell>
        <mxCell id="FvSrbzkRF-gKecdVOFJZ-41" value="" style="rounded=0;whiteSpace=wrap;html=1;" vertex="1" parent="1">
          <mxGeometry x="200" y="400" width="120" height="60" as="geometry" />
        </mxCell>
        <mxCell id="FvSrbzkRF-gKecdVOFJZ-42" value="&lt;font style=&quot;font-size: 26px;&quot;&gt;SickLeaves&lt;/font&gt;" style="text;html=1;align=center;verticalAlign=middle;whiteSpace=wrap;rounded=0;" vertex="1" parent="1">
          <mxGeometry x="80" y="340" width="160" height="50" as="geometry" />
        </mxCell>
        <mxCell id="FvSrbzkRF-gKecdVOFJZ-43" value="&lt;b&gt;&lt;u&gt;SickLLeavesID&lt;/u&gt;&lt;/b&gt;" style="text;html=1;align=center;verticalAlign=middle;whiteSpace=wrap;rounded=0;" vertex="1" parent="1">
          <mxGeometry x="80" y="405" width="120" height="50" as="geometry" />
        </mxCell>
        <mxCell id="FvSrbzkRF-gKecdVOFJZ-44" value="Leave Date" style="text;html=1;align=center;verticalAlign=middle;whiteSpace=wrap;rounded=0;" vertex="1" parent="1">
          <mxGeometry x="200" y="405" width="120" height="50" as="geometry" />
        </mxCell>
        <mxCell id="FvSrbzkRF-gKecdVOFJZ-45" value="" style="rounded=0;whiteSpace=wrap;html=1;" vertex="1" parent="1">
          <mxGeometry x="320" y="400" width="120" height="60" as="geometry" />
        </mxCell>
        <mxCell id="FvSrbzkRF-gKecdVOFJZ-46" value="Days off" style="text;html=1;align=center;verticalAlign=middle;whiteSpace=wrap;rounded=0;" vertex="1" parent="1">
          <mxGeometry x="320" y="405" width="120" height="50" as="geometry" />
        </mxCell>
        <mxCell id="FvSrbzkRF-gKecdVOFJZ-47" value="" style="rounded=0;whiteSpace=wrap;html=1;" vertex="1" parent="1">
          <mxGeometry x="440" y="400" width="120" height="60" as="geometry" />
        </mxCell>
        <mxCell id="FvSrbzkRF-gKecdVOFJZ-48" value="Reason" style="text;html=1;align=center;verticalAlign=middle;whiteSpace=wrap;rounded=0;" vertex="1" parent="1">
          <mxGeometry x="440" y="405" width="120" height="50" as="geometry" />
        </mxCell>
        <mxCell id="FvSrbzkRF-gKecdVOFJZ-49" value="" style="rounded=0;whiteSpace=wrap;html=1;" vertex="1" parent="1">
          <mxGeometry x="560" y="400" width="120" height="60" as="geometry" />
        </mxCell>
        <mxCell id="FvSrbzkRF-gKecdVOFJZ-55" value="" style="rounded=0;whiteSpace=wrap;html=1;" vertex="1" parent="1">
          <mxGeometry x="80" y="560" width="120" height="60" as="geometry" />
        </mxCell>
        <mxCell id="FvSrbzkRF-gKecdVOFJZ-56" value="" style="rounded=0;whiteSpace=wrap;html=1;" vertex="1" parent="1">
          <mxGeometry x="200" y="560" width="120" height="60" as="geometry" />
        </mxCell>
        <mxCell id="FvSrbzkRF-gKecdVOFJZ-57" value="&lt;font style=&quot;font-size: 26px;&quot;&gt;Balances&lt;/font&gt;" style="text;html=1;align=center;verticalAlign=middle;whiteSpace=wrap;rounded=0;" vertex="1" parent="1">
          <mxGeometry x="80" y="500" width="160" height="50" as="geometry" />
        </mxCell>
        <mxCell id="FvSrbzkRF-gKecdVOFJZ-58" value="&lt;b&gt;&lt;u&gt;Balance ID&lt;/u&gt;&lt;/b&gt;" style="text;html=1;align=center;verticalAlign=middle;whiteSpace=wrap;rounded=0;" vertex="1" parent="1">
          <mxGeometry x="80" y="565" width="120" height="50" as="geometry" />
        </mxCell>
        <mxCell id="FvSrbzkRF-gKecdVOFJZ-59" value="Annual Leave Balance" style="text;html=1;align=center;verticalAlign=middle;whiteSpace=wrap;rounded=0;" vertex="1" parent="1">
          <mxGeometry x="200" y="565" width="120" height="50" as="geometry" />
        </mxCell>
        <mxCell id="FvSrbzkRF-gKecdVOFJZ-60" value="" style="rounded=0;whiteSpace=wrap;html=1;" vertex="1" parent="1">
          <mxGeometry x="320" y="560" width="120" height="60" as="geometry" />
        </mxCell>
        <mxCell id="FvSrbzkRF-gKecdVOFJZ-61" value="Sick Leave Balance" style="text;html=1;align=center;verticalAlign=middle;whiteSpace=wrap;rounded=0;" vertex="1" parent="1">
          <mxGeometry x="320" y="565" width="120" height="50" as="geometry" />
        </mxCell>
        <mxCell id="FvSrbzkRF-gKecdVOFJZ-62" value="" style="rounded=0;whiteSpace=wrap;html=1;" vertex="1" parent="1">
          <mxGeometry x="440" y="560" width="120" height="60" as="geometry" />
        </mxCell>
        <mxCell id="FvSrbzkRF-gKecdVOFJZ-63" value="Last Update" style="text;html=1;align=center;verticalAlign=middle;whiteSpace=wrap;rounded=0;" vertex="1" parent="1">
          <mxGeometry x="440" y="565" width="120" height="50" as="geometry" />
        </mxCell>
        <mxCell id="FvSrbzkRF-gKecdVOFJZ-64" value="" style="rounded=0;whiteSpace=wrap;html=1;" vertex="1" parent="1">
          <mxGeometry x="560" y="560" width="120" height="60" as="geometry" />
        </mxCell>
        <mxCell id="FvSrbzkRF-gKecdVOFJZ-70" value="" style="rounded=0;whiteSpace=wrap;html=1;" vertex="1" parent="1">
          <mxGeometry x="80" y="700" width="120" height="60" as="geometry" />
        </mxCell>
        <mxCell id="FvSrbzkRF-gKecdVOFJZ-71" value="" style="rounded=0;whiteSpace=wrap;html=1;" vertex="1" parent="1">
          <mxGeometry x="200" y="700" width="120" height="60" as="geometry" />
        </mxCell>
        <mxCell id="FvSrbzkRF-gKecdVOFJZ-72" value="&lt;font style=&quot;font-size: 26px;&quot;&gt;Satisfication&lt;/font&gt;" style="text;html=1;align=center;verticalAlign=middle;whiteSpace=wrap;rounded=0;" vertex="1" parent="1">
          <mxGeometry x="80" y="640" width="160" height="50" as="geometry" />
        </mxCell>
        <mxCell id="FvSrbzkRF-gKecdVOFJZ-73" value="&lt;b&gt;&lt;u&gt;Survey ID&lt;/u&gt;&lt;/b&gt;" style="text;html=1;align=center;verticalAlign=middle;whiteSpace=wrap;rounded=0;" vertex="1" parent="1">
          <mxGeometry x="80" y="705" width="120" height="50" as="geometry" />
        </mxCell>
        <mxCell id="FvSrbzkRF-gKecdVOFJZ-74" value="Satisfication Score" style="text;html=1;align=center;verticalAlign=middle;whiteSpace=wrap;rounded=0;" vertex="1" parent="1">
          <mxGeometry x="200" y="705" width="120" height="50" as="geometry" />
        </mxCell>
        <mxCell id="FvSrbzkRF-gKecdVOFJZ-75" value="" style="rounded=0;whiteSpace=wrap;html=1;" vertex="1" parent="1">
          <mxGeometry x="320" y="700" width="120" height="60" as="geometry" />
        </mxCell>
        <mxCell id="FvSrbzkRF-gKecdVOFJZ-76" value="Comments" style="text;html=1;align=center;verticalAlign=middle;whiteSpace=wrap;rounded=0;" vertex="1" parent="1">
          <mxGeometry x="320" y="705" width="120" height="50" as="geometry" />
        </mxCell>
        <mxCell id="FvSrbzkRF-gKecdVOFJZ-77" value="" style="rounded=0;whiteSpace=wrap;html=1;" vertex="1" parent="1">
          <mxGeometry x="440" y="700" width="120" height="60" as="geometry" />
        </mxCell>
        <mxCell id="FvSrbzkRF-gKecdVOFJZ-78" value="Survey Date" style="text;html=1;align=center;verticalAlign=middle;whiteSpace=wrap;rounded=0;" vertex="1" parent="1">
          <mxGeometry x="440" y="705" width="120" height="50" as="geometry" />
        </mxCell>
        <mxCell id="FvSrbzkRF-gKecdVOFJZ-79" value="" style="rounded=0;whiteSpace=wrap;html=1;" vertex="1" parent="1">
          <mxGeometry x="560" y="700" width="120" height="60" as="geometry" />
        </mxCell>
        <mxCell id="FvSrbzkRF-gKecdVOFJZ-88" value="Employees ID" style="text;html=1;align=center;verticalAlign=middle;whiteSpace=wrap;rounded=0;" vertex="1" parent="1">
          <mxGeometry x="440" y="255" width="120" height="50" as="geometry" />
        </mxCell>
        <mxCell id="FvSrbzkRF-gKecdVOFJZ-89" value="" style="endArrow=none;dashed=1;html=1;rounded=0;" edge="1" parent="1">
          <mxGeometry width="50" height="50" relative="1" as="geometry">
            <mxPoint x="545" y="290" as="sourcePoint" />
            <mxPoint x="455" y="290" as="targetPoint" />
          </mxGeometry>
        </mxCell>
        <mxCell id="FvSrbzkRF-gKecdVOFJZ-92" value="" style="endArrow=classic;html=1;rounded=0;entryX=0.5;entryY=0;entryDx=0;entryDy=0;exitX=0.937;exitY=1.007;exitDx=0;exitDy=0;exitPerimeter=0;" edge="1" parent="1" source="FvSrbzkRF-gKecdVOFJZ-2" target="FvSrbzkRF-gKecdVOFJZ-32">
          <mxGeometry width="50" height="50" relative="1" as="geometry">
            <mxPoint x="400" y="260" as="sourcePoint" />
            <mxPoint x="450" y="210" as="targetPoint" />
            <Array as="points">
              <mxPoint x="350" y="180" />
              <mxPoint x="490" y="210" />
            </Array>
          </mxGeometry>
        </mxCell>
        <mxCell id="FvSrbzkRF-gKecdVOFJZ-93" value="Employees ID" style="text;html=1;align=center;verticalAlign=middle;whiteSpace=wrap;rounded=0;" vertex="1" parent="1">
          <mxGeometry x="560" y="400" width="120" height="50" as="geometry" />
        </mxCell>
        <mxCell id="FvSrbzkRF-gKecdVOFJZ-94" value="" style="endArrow=classic;html=1;rounded=0;exitX=0.75;exitY=1;exitDx=0;exitDy=0;entryX=0.75;entryY=0;entryDx=0;entryDy=0;" edge="1" parent="1" source="FvSrbzkRF-gKecdVOFJZ-2" target="FvSrbzkRF-gKecdVOFJZ-64">
          <mxGeometry width="50" height="50" relative="1" as="geometry">
            <mxPoint x="300" y="210" as="sourcePoint" />
            <mxPoint x="660" y="550" as="targetPoint" />
            <Array as="points">
              <mxPoint x="250" y="190" />
              <mxPoint x="290" y="190" />
              <mxPoint x="620" y="180" />
              <mxPoint x="620" y="240" />
              <mxPoint x="700" y="340" />
              <mxPoint x="700" y="500" />
            </Array>
          </mxGeometry>
        </mxCell>
        <mxCell id="FvSrbzkRF-gKecdVOFJZ-95" value="" style="endArrow=none;dashed=1;html=1;rounded=0;" edge="1" parent="1">
          <mxGeometry width="50" height="50" relative="1" as="geometry">
            <mxPoint x="665" y="440" as="sourcePoint" />
            <mxPoint x="575" y="440" as="targetPoint" />
          </mxGeometry>
        </mxCell>
        <mxCell id="9YI-n9FM-02io9CFrLoi-1" value="Employees ID" style="text;html=1;align=center;verticalAlign=middle;whiteSpace=wrap;rounded=0;" vertex="1" parent="1">
          <mxGeometry x="560" y="570" width="120" height="50" as="geometry" />
        </mxCell>
        <mxCell id="9YI-n9FM-02io9CFrLoi-2" value="" style="endArrow=none;dashed=1;html=1;rounded=0;" edge="1" parent="1">
          <mxGeometry width="50" height="50" relative="1" as="geometry">
            <mxPoint x="665" y="610" as="sourcePoint" />
            <mxPoint x="575" y="610" as="targetPoint" />
          </mxGeometry>
        </mxCell>
        <mxCell id="9YI-n9FM-02io9CFrLoi-3" value="Employees ID" style="text;html=1;align=center;verticalAlign=middle;whiteSpace=wrap;rounded=0;" vertex="1" parent="1">
          <mxGeometry x="560" y="705" width="120" height="50" as="geometry" />
        </mxCell>
        <mxCell id="9YI-n9FM-02io9CFrLoi-4" value="" style="endArrow=none;dashed=1;html=1;rounded=0;" edge="1" parent="1">
          <mxGeometry width="50" height="50" relative="1" as="geometry">
            <mxPoint x="665" y="745" as="sourcePoint" />
            <mxPoint x="575" y="745" as="targetPoint" />
          </mxGeometry>
        </mxCell>
        <mxCell id="9YI-n9FM-02io9CFrLoi-5" value="" style="endArrow=classic;html=1;rounded=0;entryX=0.5;entryY=0;entryDx=0;entryDy=0;exitX=0.327;exitY=1.047;exitDx=0;exitDy=0;exitPerimeter=0;" edge="1" parent="1" source="FvSrbzkRF-gKecdVOFJZ-2">
          <mxGeometry width="50" height="50" relative="1" as="geometry">
            <mxPoint x="130" y="170" as="sourcePoint" />
            <mxPoint x="580" y="400" as="targetPoint" />
            <Array as="points">
              <mxPoint x="230" y="210" />
              <mxPoint x="368" y="220" />
              <mxPoint x="580" y="240" />
            </Array>
          </mxGeometry>
        </mxCell>
        <mxCell id="9YI-n9FM-02io9CFrLoi-8" value="" style="endArrow=classic;html=1;rounded=0;exitX=0.75;exitY=1;exitDx=0;exitDy=0;entryX=0.597;entryY=-0.053;entryDx=0;entryDy=0;entryPerimeter=0;" edge="1" parent="1" target="FvSrbzkRF-gKecdVOFJZ-79">
          <mxGeometry width="50" height="50" relative="1" as="geometry">
            <mxPoint x="133" y="130" as="sourcePoint" />
            <mxPoint x="628" y="660" as="targetPoint" />
            <Array as="points">
              <mxPoint x="223" y="190" />
              <mxPoint x="371" y="180" />
              <mxPoint x="718" y="220" />
              <mxPoint x="718" y="470" />
              <mxPoint x="700" y="650" />
            </Array>
          </mxGeometry>
        </mxCell>
      </root>
    </mxGraphModel>
  </diagram>
  <diagram id="3b2JpWz_mJC9eo1GTD1G" name="Tables">
    <mxGraphModel dx="1042" dy="660" grid="1" gridSize="10" guides="1" tooltips="1" connect="1" arrows="1" fold="1" page="1" pageScale="1" pageWidth="850" pageHeight="1100" math="0" shadow="0">
      <root>
        <mxCell id="0" />
        <mxCell id="1" parent="0" />
        <mxCell id="FlVYtJMzhciJ7YpL7EUL-1" value="Employees" style="swimlane;whiteSpace=wrap;html=1;" vertex="1" parent="1">
          <mxGeometry x="80" y="100" width="200" height="200" as="geometry" />
        </mxCell>
        <mxCell id="FlVYtJMzhciJ7YpL7EUL-10" value="Employees ID&lt;div&gt;First Name&lt;/div&gt;&lt;div&gt;Last Name&lt;/div&gt;&lt;div&gt;Department&lt;/div&gt;&lt;div&gt;Job Title&lt;/div&gt;&lt;div&gt;Phone&lt;/div&gt;&lt;div&gt;Email&lt;/div&gt;" style="text;html=1;align=center;verticalAlign=middle;whiteSpace=wrap;rounded=0;" vertex="1" parent="FlVYtJMzhciJ7YpL7EUL-1">
          <mxGeometry x="20" y="40" width="160" height="120" as="geometry" />
        </mxCell>
        <mxCell id="FlVYtJMzhciJ7YpL7EUL-2" value="Hiring" style="swimlane;whiteSpace=wrap;html=1;" vertex="1" parent="1">
          <mxGeometry x="325" y="100" width="200" height="200" as="geometry" />
        </mxCell>
        <mxCell id="FlVYtJMzhciJ7YpL7EUL-11" value="Hiring ID&lt;div&gt;Employees ID&lt;/div&gt;&lt;div&gt;&lt;div&gt;&lt;span style=&quot;background-color: transparent; color: light-dark(rgb(0, 0, 0), rgb(255, 255, 255));&quot;&gt;Hiring Date&lt;/span&gt;&lt;/div&gt;&lt;div&gt;&lt;span style=&quot;background-color: transparent; color: light-dark(rgb(0, 0, 0), rgb(255, 255, 255));&quot;&gt;Hiring Source&lt;/span&gt;&lt;/div&gt;&lt;/div&gt;" style="text;html=1;align=center;verticalAlign=middle;whiteSpace=wrap;rounded=0;" vertex="1" parent="FlVYtJMzhciJ7YpL7EUL-2">
          <mxGeometry x="15" y="40" width="160" height="120" as="geometry" />
        </mxCell>
        <mxCell id="FlVYtJMzhciJ7YpL7EUL-3" value="Balances" style="swimlane;whiteSpace=wrap;html=1;" vertex="1" parent="1">
          <mxGeometry x="70" y="370" width="200" height="200" as="geometry" />
        </mxCell>
        <mxCell id="FlVYtJMzhciJ7YpL7EUL-13" value="&lt;div&gt;Balances Id&lt;/div&gt;Employees ID&lt;div&gt;Annual Leave Balance&lt;br&gt;&lt;div&gt;Sick Leave Balance&lt;br&gt;&lt;div&gt;Last Update&lt;/div&gt;&lt;/div&gt;&lt;/div&gt;" style="text;html=1;align=center;verticalAlign=middle;whiteSpace=wrap;rounded=0;" vertex="1" parent="FlVYtJMzhciJ7YpL7EUL-3">
          <mxGeometry x="30" y="40" width="160" height="120" as="geometry" />
        </mxCell>
        <mxCell id="FlVYtJMzhciJ7YpL7EUL-4" value="Satisfication" style="swimlane;whiteSpace=wrap;html=1;" vertex="1" parent="1">
          <mxGeometry x="330" y="370" width="200" height="200" as="geometry" />
        </mxCell>
        <mxCell id="FlVYtJMzhciJ7YpL7EUL-14" value="&lt;div&gt;Survey ID&lt;/div&gt;Employees ID&lt;div&gt;Satisfication Score&lt;/div&gt;&lt;div&gt;Comments&lt;/div&gt;&lt;div&gt;Survey Date&lt;/div&gt;" style="text;html=1;align=center;verticalAlign=middle;whiteSpace=wrap;rounded=0;" vertex="1" parent="FlVYtJMzhciJ7YpL7EUL-4">
          <mxGeometry x="20" y="40" width="160" height="120" as="geometry" />
        </mxCell>
        <mxCell id="FlVYtJMzhciJ7YpL7EUL-9" value="SickLeaves" style="swimlane;whiteSpace=wrap;html=1;" vertex="1" parent="1">
          <mxGeometry x="580" y="100" width="200" height="200" as="geometry" />
        </mxCell>
        <mxCell id="FlVYtJMzhciJ7YpL7EUL-12" value="&lt;div&gt;SickLeave ID&lt;/div&gt;Employees ID&lt;div&gt;Leave Date&lt;/div&gt;&lt;div&gt;Days off&lt;/div&gt;&lt;div&gt;Reason&lt;/div&gt;" style="text;html=1;align=center;verticalAlign=middle;whiteSpace=wrap;rounded=0;" vertex="1" parent="FlVYtJMzhciJ7YpL7EUL-9">
          <mxGeometry x="20" y="40" width="160" height="120" as="geometry" />
        </mxCell>
      </root>
    </mxGraphModel>
  </diagram>
  <diagram id="vyPEmBX6YSpmrem3Yha4" name="DWH">
    <mxGraphModel dx="1226" dy="776" grid="1" gridSize="10" guides="1" tooltips="1" connect="1" arrows="1" fold="1" page="1" pageScale="1" pageWidth="850" pageHeight="1100" math="0" shadow="0">
      <root>
        <mxCell id="0" />
        <mxCell id="1" parent="0" />
        <mxCell id="EniWI5ZJ2baaIdPIXEWi-1" value="&lt;u&gt;DIM&lt;/u&gt; &lt;span style=&quot;font-weight: normal;&quot;&gt;Employees&lt;/span&gt;" style="swimlane;whiteSpace=wrap;html=1;" parent="1" vertex="1">
          <mxGeometry x="210" y="30" width="200" height="200" as="geometry" />
        </mxCell>
        <mxCell id="EniWI5ZJ2baaIdPIXEWi-9" value="&lt;font style=&quot;color: rgb(255, 0, 0);&quot;&gt;Employees &lt;b&gt;SK&lt;/b&gt;&lt;/font&gt;&lt;div&gt;Employees &lt;b&gt;BK&lt;/b&gt;&lt;/div&gt;&lt;div&gt;First Name&lt;/div&gt;&lt;div&gt;Last Name&lt;/div&gt;&lt;div&gt;Department&lt;/div&gt;&lt;div&gt;Job Title&lt;/div&gt;&lt;div&gt;Phone&lt;/div&gt;&lt;div&gt;Email&lt;/div&gt;" style="text;html=1;align=center;verticalAlign=middle;whiteSpace=wrap;rounded=0;" parent="EniWI5ZJ2baaIdPIXEWi-1" vertex="1">
          <mxGeometry x="20" y="30" width="160" height="150" as="geometry" />
        </mxCell>
        <mxCell id="EniWI5ZJ2baaIdPIXEWi-23" style="edgeStyle=orthogonalEdgeStyle;rounded=0;orthogonalLoop=1;jettySize=auto;html=1;exitX=0.5;exitY=1;exitDx=0;exitDy=0;entryX=1;entryY=0.25;entryDx=0;entryDy=0;" parent="1" source="EniWI5ZJ2baaIdPIXEWi-2" target="EniWI5ZJ2baaIdPIXEWi-3" edge="1">
          <mxGeometry relative="1" as="geometry" />
        </mxCell>
        <mxCell id="EniWI5ZJ2baaIdPIXEWi-2" value="&lt;u&gt;DIM&lt;/u&gt;&amp;nbsp;&lt;span style=&quot;font-weight: 400;&quot;&gt;Date&lt;/span&gt;" style="swimlane;whiteSpace=wrap;html=1;" parent="1" vertex="1">
          <mxGeometry x="560" y="40" width="200" height="200" as="geometry" />
        </mxCell>
        <mxCell id="EniWI5ZJ2baaIdPIXEWi-11" value="&lt;font style=&quot;color: rgb(153, 0, 77);&quot;&gt;Time&amp;nbsp;&lt;b style=&quot;&quot;&gt;SK&lt;/b&gt;&lt;/font&gt;&lt;div&gt;Day&lt;/div&gt;&lt;div&gt;Day Name&lt;/div&gt;&lt;div&gt;Month&lt;/div&gt;&lt;div&gt;Month Name&lt;/div&gt;&lt;div&gt;Quarter&lt;/div&gt;&lt;div&gt;Year&lt;/div&gt;" style="text;html=1;align=center;verticalAlign=middle;whiteSpace=wrap;rounded=0;" parent="EniWI5ZJ2baaIdPIXEWi-2" vertex="1">
          <mxGeometry x="20" y="25" width="160" height="150" as="geometry" />
        </mxCell>
        <mxCell id="EniWI5ZJ2baaIdPIXEWi-3" value="&lt;u&gt;FACT&lt;/u&gt; KPis&amp;nbsp;" style="swimlane;whiteSpace=wrap;html=1;startSize=23;" parent="1" vertex="1">
          <mxGeometry x="350" y="260" width="200" height="280" as="geometry" />
        </mxCell>
        <mxCell id="EniWI5ZJ2baaIdPIXEWi-18" value="KPis &lt;b&gt;SK&lt;/b&gt;&lt;div&gt;&lt;font style=&quot;color: rgb(255, 0, 0);&quot;&gt;Employees &lt;b&gt;FK&lt;/b&gt;&lt;/font&gt;&lt;/div&gt;&lt;div&gt;&lt;font style=&quot;color: rgb(0, 0, 255);&quot;&gt;Hiring &lt;b&gt;FK&lt;/b&gt;&lt;/font&gt;&lt;/div&gt;&lt;div&gt;&lt;font style=&quot;color: rgb(0, 153, 0);&quot;&gt;SickLeaves &lt;b style=&quot;&quot;&gt;FK&lt;/b&gt;&lt;/font&gt;&lt;/div&gt;&lt;div&gt;&lt;font style=&quot;color: rgb(153, 76, 0);&quot;&gt;Balance &lt;b&gt;FK&lt;/b&gt;&lt;/font&gt;&lt;/div&gt;&lt;div&gt;&lt;font style=&quot;color: rgb(76, 0, 153);&quot;&gt;Satisfication&lt;b&gt; FK&lt;/b&gt;&lt;/font&gt;&lt;/div&gt;&lt;div&gt;&lt;font style=&quot;color: rgb(153, 0, 77);&quot;&gt;Time&lt;b&gt; FK&lt;/b&gt;&lt;/font&gt;&lt;/div&gt;&lt;div&gt;&lt;br&gt;&lt;/div&gt;&lt;div&gt;Days off&amp;nbsp;&lt;/div&gt;&lt;div&gt;Annual Leave Balance&lt;/div&gt;&lt;div&gt;Sick Leave Balance&lt;/div&gt;&lt;div&gt;Satisfication Score&lt;/div&gt;&lt;div&gt;&lt;br&gt;&lt;/div&gt;&lt;div&gt;Tenure&lt;/div&gt;&lt;div&gt;SickLeaveCount&amp;nbsp;&lt;/div&gt;&lt;div&gt;AvgSatisfaction &amp;nbsp;&lt;/div&gt;&lt;div&gt;&lt;br&gt;&lt;/div&gt;" style="text;html=1;align=center;verticalAlign=middle;whiteSpace=wrap;rounded=0;" parent="EniWI5ZJ2baaIdPIXEWi-3" vertex="1">
          <mxGeometry x="27.5" y="40" width="145" height="230" as="geometry" />
        </mxCell>
        <mxCell id="EniWI5ZJ2baaIdPIXEWi-19" style="edgeStyle=orthogonalEdgeStyle;rounded=0;orthogonalLoop=1;jettySize=auto;html=1;exitX=1;exitY=0.5;exitDx=0;exitDy=0;" parent="1" source="EniWI5ZJ2baaIdPIXEWi-4" edge="1">
          <mxGeometry relative="1" as="geometry">
            <mxPoint x="350" y="370" as="targetPoint" />
          </mxGeometry>
        </mxCell>
        <mxCell id="EniWI5ZJ2baaIdPIXEWi-4" value="&lt;u&gt;DIM&lt;/u&gt;&amp;nbsp;&lt;span style=&quot;font-weight: normal;&quot;&gt;Hiring&lt;/span&gt;" style="swimlane;whiteSpace=wrap;html=1;" parent="1" vertex="1">
          <mxGeometry x="40" y="260" width="200" height="200" as="geometry" />
        </mxCell>
        <mxCell id="EniWI5ZJ2baaIdPIXEWi-12" value="&lt;font style=&quot;color: rgb(51, 51, 255);&quot;&gt;Hiring&amp;nbsp;&lt;b style=&quot;&quot;&gt;SK&lt;/b&gt;&lt;/font&gt;&lt;div&gt;Hiring&amp;nbsp;&lt;b&gt;BK&lt;/b&gt;&lt;/div&gt;&lt;div&gt;Employees &lt;b&gt;FK&lt;/b&gt;&lt;/div&gt;&lt;div&gt;Hiring Source&lt;/div&gt;&lt;div&gt;&lt;font style=&quot;color: rgb(153, 0, 77);&quot;&gt;Time&amp;nbsp;&lt;b&gt;FK&lt;/b&gt;&lt;/font&gt;&lt;/div&gt;&lt;div&gt;&lt;font style=&quot;color: rgb(153, 0, 77);&quot;&gt;&lt;b&gt;&lt;br&gt;&lt;/b&gt;&lt;/font&gt;&lt;/div&gt;" style="text;html=1;align=center;verticalAlign=middle;whiteSpace=wrap;rounded=0;" parent="EniWI5ZJ2baaIdPIXEWi-4" vertex="1">
          <mxGeometry x="20" y="40" width="160" height="150" as="geometry" />
        </mxCell>
        <mxCell id="EniWI5ZJ2baaIdPIXEWi-22" style="edgeStyle=orthogonalEdgeStyle;rounded=0;orthogonalLoop=1;jettySize=auto;html=1;exitX=0;exitY=0.5;exitDx=0;exitDy=0;" parent="1" source="EniWI5ZJ2baaIdPIXEWi-5" edge="1">
          <mxGeometry relative="1" as="geometry">
            <mxPoint x="550" y="429.8823529411766" as="targetPoint" />
          </mxGeometry>
        </mxCell>
        <mxCell id="EniWI5ZJ2baaIdPIXEWi-5" value="&lt;u&gt;DIM&lt;/u&gt;&amp;nbsp;&lt;span style=&quot;font-weight: normal;&quot;&gt;Balances&lt;/span&gt;" style="swimlane;whiteSpace=wrap;html=1;" parent="1" vertex="1">
          <mxGeometry x="630" y="330" width="200" height="200" as="geometry" />
        </mxCell>
        <mxCell id="EniWI5ZJ2baaIdPIXEWi-17" value="&lt;font style=&quot;color: rgb(153, 76, 0);&quot;&gt;Balances&amp;nbsp;&lt;b style=&quot;&quot;&gt;SK&lt;br&gt;&lt;/b&gt;&lt;/font&gt;&lt;div&gt;&lt;span style=&quot;background-color: transparent; color: light-dark(rgb(0, 0, 0), rgb(255, 255, 255));&quot;&gt;Balances&lt;/span&gt;&amp;nbsp;&lt;b&gt;BK&lt;/b&gt;&lt;/div&gt;&lt;div&gt;Employees &lt;b&gt;FK&lt;/b&gt;&lt;/div&gt;&lt;div&gt;&lt;font style=&quot;color: rgb(153, 0, 77);&quot;&gt;Time&amp;nbsp;&lt;b&gt;FK&lt;/b&gt;&lt;/font&gt;&lt;/div&gt;" style="text;html=1;align=center;verticalAlign=middle;whiteSpace=wrap;rounded=0;" parent="EniWI5ZJ2baaIdPIXEWi-5" vertex="1">
          <mxGeometry x="20" y="25" width="160" height="150" as="geometry" />
        </mxCell>
        <mxCell id="EniWI5ZJ2baaIdPIXEWi-20" style="edgeStyle=orthogonalEdgeStyle;rounded=0;orthogonalLoop=1;jettySize=auto;html=1;exitX=1;exitY=0.5;exitDx=0;exitDy=0;entryX=0;entryY=1;entryDx=0;entryDy=0;" parent="1" source="EniWI5ZJ2baaIdPIXEWi-6" target="EniWI5ZJ2baaIdPIXEWi-3" edge="1">
          <mxGeometry relative="1" as="geometry" />
        </mxCell>
        <mxCell id="EniWI5ZJ2baaIdPIXEWi-6" value="&lt;u&gt;DIM&lt;/u&gt;&amp;nbsp;&lt;span style=&quot;font-weight: normal;&quot;&gt;SickLeaves&lt;/span&gt;" style="swimlane;whiteSpace=wrap;html=1;" parent="1" vertex="1">
          <mxGeometry x="90" y="510" width="200" height="200" as="geometry" />
        </mxCell>
        <mxCell id="EniWI5ZJ2baaIdPIXEWi-13" value="&lt;font style=&quot;color: rgb(0, 153, 0);&quot;&gt;SickLeaves&amp;nbsp;&lt;b style=&quot;&quot;&gt;SK&lt;br&gt;&lt;/b&gt;&lt;/font&gt;&lt;div&gt;&lt;span style=&quot;background-color: transparent; color: light-dark(rgb(0, 0, 0), rgb(255, 255, 255));&quot;&gt;SickLeaves&amp;nbsp;&lt;/span&gt;&lt;b&gt;BK&lt;/b&gt;&lt;/div&gt;&lt;div&gt;Employees &lt;b&gt;FK&lt;/b&gt;&lt;/div&gt;&lt;font style=&quot;color: rgb(153, 0, 77);&quot;&gt;Time &lt;b&gt;FK&lt;/b&gt;&lt;/font&gt;&lt;div&gt;&lt;span style=&quot;background-color: transparent; color: light-dark(rgb(0, 0, 0), rgb(255, 255, 255));&quot;&gt;Reason&lt;/span&gt;&lt;/div&gt;" style="text;html=1;align=center;verticalAlign=middle;whiteSpace=wrap;rounded=0;" parent="EniWI5ZJ2baaIdPIXEWi-6" vertex="1">
          <mxGeometry x="20" y="30" width="160" height="150" as="geometry" />
        </mxCell>
        <mxCell id="EniWI5ZJ2baaIdPIXEWi-21" style="edgeStyle=orthogonalEdgeStyle;rounded=0;orthogonalLoop=1;jettySize=auto;html=1;exitX=0.5;exitY=0;exitDx=0;exitDy=0;" parent="1" source="EniWI5ZJ2baaIdPIXEWi-8" edge="1">
          <mxGeometry relative="1" as="geometry">
            <mxPoint x="530" y="540" as="targetPoint" />
          </mxGeometry>
        </mxCell>
        <mxCell id="EniWI5ZJ2baaIdPIXEWi-8" value="&lt;u&gt;DIM&lt;/u&gt;&amp;nbsp;&lt;span style=&quot;font-weight: 400;&quot;&gt;Satisfication&lt;/span&gt;" style="swimlane;whiteSpace=wrap;html=1;" parent="1" vertex="1">
          <mxGeometry x="450" y="570" width="200" height="200" as="geometry" />
        </mxCell>
        <mxCell id="EniWI5ZJ2baaIdPIXEWi-14" value="&lt;font style=&quot;color: rgb(76, 0, 153);&quot;&gt;Satisfication&lt;b style=&quot;&quot;&gt;SK&lt;/b&gt;&lt;/font&gt;&lt;div&gt;Survey&amp;nbsp;&lt;b&gt;BK&lt;/b&gt;&lt;/div&gt;&lt;div&gt;Employees &lt;b&gt;FK&lt;/b&gt;&lt;/div&gt;&lt;font style=&quot;color: rgb(153, 0, 77);&quot;&gt;Time &lt;b&gt;FK&lt;/b&gt;&lt;/font&gt;&lt;div&gt;&lt;span style=&quot;background-color: transparent; color: light-dark(rgb(0, 0, 0), rgb(255, 255, 255));&quot;&gt;Comment&lt;/span&gt;&lt;/div&gt;" style="text;html=1;align=center;verticalAlign=middle;whiteSpace=wrap;rounded=0;" parent="EniWI5ZJ2baaIdPIXEWi-8" vertex="1">
          <mxGeometry x="10" y="25" width="160" height="150" as="geometry" />
        </mxCell>
        <mxCell id="EniWI5ZJ2baaIdPIXEWi-24" style="edgeStyle=orthogonalEdgeStyle;rounded=0;orthogonalLoop=1;jettySize=auto;html=1;exitX=1;exitY=0.5;exitDx=0;exitDy=0;entryX=0.445;entryY=0.008;entryDx=0;entryDy=0;entryPerimeter=0;" parent="1" source="EniWI5ZJ2baaIdPIXEWi-1" target="EniWI5ZJ2baaIdPIXEWi-3" edge="1">
          <mxGeometry relative="1" as="geometry" />
        </mxCell>
      </root>
    </mxGraphModel>
  </diagram>
</mxfile>
